<?xml version="1.0" standalone="no"?>
<!DOCTYPE svg PUBLIC "-//W3C//DTD SVG 20010904//EN"
 "http://www.w3.org/TR/2001/REC-SVG-20010904/DTD/svg10.dtd">
<svg version="1.0" xmlns="http://www.w3.org/2000/svg"
 width="270.000000pt" height="600.000000pt" viewBox="0 0 270.000000 600.000000"
 preserveAspectRatio="xMidYMid meet">
<metadata>
Created by potrace 1.10, written by Peter Selinger 2001-2011
</metadata>
<g transform="translate(0.000000,600.000000) scale(0.100000,-0.100000)"
fill="#000000" stroke="none">
<path d="M950 5351 c-73 -15 -102 -44 -119 -122 -13 -59 -88 -199 -107 -199
-19 0 -54 -36 -54 -55 0 -24 17 -17 24 9 5 20 18 28 62 41 31 9 59 14 61 11 9
-9 -26 -56 -42 -56 -14 0 -55 -46 -55 -63 0 -5 9 2 21 17 23 29 49 35 49 11 0
-16 -51 -52 -88 -61 -15 -4 -30 0 -42 11 -11 10 -20 14 -20 8 0 -14 34 -43 49
-43 20 0 84 31 109 53 l22 20 0 -20 c0 -24 -16 -39 -51 -48 -38 -9 -99 -63
-115 -101 -8 -19 -14 -49 -14 -68 0 -22 -11 -53 -29 -81 -17 -27 -34 -73 -41
-113 -12 -60 -18 -72 -60 -112 -39 -37 -52 -60 -78 -135 -60 -174 -93 -367
-70 -408 4 -9 30 -18 58 -22 41 -6 54 -3 80 15 36 25 36 32 9 110 l-21 60 21
33 c11 17 42 72 68 121 26 49 56 103 65 120 9 17 17 41 18 53 0 12 6 28 13 35
8 7 19 23 26 36 6 12 15 22 19 22 23 0 41 -264 23 -327 -8 -26 -6 -32 9 -36
10 -2 23 -14 29 -25 9 -17 8 -19 -8 -15 -16 4 -19 1 -14 -16 4 -17 8 -19 26
-9 16 8 22 8 25 -1 2 -6 12 -11 23 -11 16 0 18 -6 14 -47 l-5 -48 11 41 c5 23
17 49 27 57 16 15 17 9 14 -96 -2 -106 -10 -179 -32 -328 -5 -36 -26 -117 -46
-180 -30 -96 -37 -134 -43 -247 -8 -135 -16 -170 -27 -114 -5 27 -10 31 -29
26 -17 -4 -24 0 -28 17 -4 14 -11 20 -21 16 -8 -3 -18 -2 -21 3 -3 6 -16 5
-31 0 -14 -6 -23 -6 -20 -2 2 4 -14 6 -36 3 l-41 -3 6 42 c3 24 31 93 62 153
31 60 54 112 51 114 -5 6 -92 -153 -107 -196 -9 -24 -16 -31 -30 -28 -12 3
-21 -4 -29 -24 -15 -36 -7 -59 21 -59 18 0 20 -4 15 -26 l-7 -26 85 7 c83 7
85 6 101 -19 11 -16 30 -28 52 -32 40 -7 58 -31 72 -94 5 -25 25 -79 44 -120
19 -41 38 -91 42 -110 4 -19 14 -47 23 -62 13 -22 14 -30 4 -40 -7 -7 -12 -22
-12 -34 0 -16 -17 -32 -68 -63 -37 -22 -82 -45 -100 -52 -18 -6 -31 -16 -29
-23 6 -18 67 -19 129 -1 79 22 158 13 217 -26 25 -16 48 -29 53 -29 5 0 8 -6
7 -12 -3 -28 1 -49 10 -44 5 3 12 -1 15 -10 5 -12 2 -15 -10 -10 -12 5 -14 1
-9 -15 6 -18 4 -20 -14 -14 -16 5 -21 2 -22 -12 0 -10 -6 -2 -12 17 l-11 35
-6 -40 c-5 -38 -6 -39 -18 -18 -6 12 -12 29 -12 38 0 9 -5 13 -11 10 -6 -4 -7
-19 -4 -36 4 -17 2 -29 -4 -29 -16 0 -22 18 -9 23 8 3 5 6 -6 6 -14 1 -16 4
-7 14 6 8 8 17 5 20 -4 3 3 21 15 40 21 34 28 67 14 67 -16 -1 -53 -106 -53
-149 l0 -43 48 6 c74 10 133 30 142 46 5 9 4 37 -2 64 -8 39 -7 50 6 65 21 23
20 26 -5 61 -20 26 -21 31 -7 52 15 25 43 97 52 140 3 14 9 34 12 45 5 17 5
17 -6 1 -6 -10 -16 -18 -23 -18 -8 0 -13 -20 -14 -57 -3 -74 -26 -98 -87 -87
-23 3 -49 10 -58 15 -24 13 -43 76 -39 136 2 37 -6 82 -28 152 -22 70 -31 119
-31 168 0 38 -4 73 -9 79 -13 14 -67 180 -81 250 -11 54 -10 68 8 130 18 59
36 152 56 279 2 17 5 93 6 170 1 127 3 137 15 110 8 -16 14 -47 15 -67 0 -21
11 -61 24 -90 13 -29 32 -72 41 -95 10 -23 27 -50 38 -60 14 -13 8 5 -20 62
-22 44 -44 96 -47 115 -4 19 -19 70 -32 114 -26 82 -26 99 1 72 9 -9 21 -16
26 -16 5 0 9 -6 9 -13 0 -7 21 -29 48 -49 26 -20 64 -53 85 -73 21 -20 41 -34
44 -31 7 6 -98 126 -111 126 -4 0 -26 16 -47 35 l-39 35 43 0 c26 0 64 10 95
25 48 23 72 30 72 21 0 -2 7 -20 15 -39 13 -31 13 -36 1 -31 -11 4 -13 0 -9
-15 3 -12 12 -21 21 -21 8 0 12 -3 9 -6 -4 -4 2 -19 12 -33 37 -54 41 -83 42
-281 0 -107 5 -222 10 -255 30 -205 30 -277 -1 -400 -12 -49 -26 -119 -32
-155 -6 -36 -17 -72 -24 -81 -8 -9 -13 -27 -13 -40 1 -13 -2 -32 -6 -41 -4
-10 -3 -18 1 -18 16 0 31 15 31 30 0 36 52 287 79 386 18 66 18 107 -4 234
-12 72 -19 174 -21 325 -3 240 -2 232 -74 379 -40 83 -57 149 -57 225 0 37 6
53 31 81 17 19 44 50 59 69 l28 34 60 -47 c58 -46 59 -48 55 -89 -3 -31 4 -63
28 -122 33 -86 58 -163 66 -208 4 -23 -1 -36 -27 -62 -30 -31 -32 -38 -26 -76
4 -23 11 -50 16 -60 16 -29 71 -34 123 -11 l44 20 7 127 c4 70 5 129 3 132 -3
2 -15 0 -26 -7 -12 -6 -43 -10 -68 -8 -43 3 -45 4 -30 19 9 10 14 25 10 38 -7
26 -20 27 -27 4 -2 -10 -3 -4 -1 14 2 23 -1 30 -10 27 -7 -3 -16 -1 -19 4 -3
5 16 12 42 15 26 4 59 9 75 13 17 4 27 2 27 -5 0 -6 -6 -11 -14 -11 -8 0 -17
-4 -20 -9 -3 -4 6 -6 19 -3 20 3 25 0 25 -17 0 -13 -4 -19 -10 -16 -6 4 -8 11
-5 16 3 5 -1 6 -9 3 -9 -3 -14 -10 -13 -14 1 -5 -7 -15 -17 -23 -22 -16 -14
-37 16 -37 14 0 18 5 14 15 -4 12 0 14 19 11 23 -4 25 -2 25 35 0 48 -55 250
-81 299 -29 55 -59 142 -59 175 -1 17 -11 50 -25 75 -13 25 -34 68 -48 96 -23
49 -84 104 -113 104 -18 0 -113 108 -120 138 -4 15 -14 37 -22 49 -10 17 -12
38 -7 81 6 51 4 63 -17 94 -13 20 -31 50 -40 67 -16 30 -73 72 -93 70 -5 -1
-26 -4 -45 -8z m80 -46 c22 -14 39 -29 38 -33 -1 -4 4 -18 11 -30 7 -13 10
-26 8 -29 -3 -2 -10 5 -17 16 -6 12 -15 19 -19 17 -4 -3 -19 6 -31 19 -26 27
-60 33 -60 11 0 -25 -31 -27 -58 -4 -15 11 -19 18 -10 15 10 -3 20 -2 24 4 3
6 12 8 18 6 7 -3 19 -1 27 5 11 8 10 9 -3 4 -10 -3 -18 -1 -18 4 0 7 17 15 43
19 4 0 25 -10 47 -24z m-110 -78 c8 1 36 4 61 8 47 7 47 7 58 -28 7 -19 10
-47 7 -61 -3 -15 -1 -24 5 -21 5 4 9 13 9 22 0 38 14 -1 16 -45 2 -52 -19 -97
-41 -88 -8 3 -12 0 -9 -8 7 -17 -26 -44 -56 -46 -40 -3 -47 -1 -54 18 -3 9
-10 24 -15 32 -19 30 -41 84 -41 101 0 16 3 17 25 7 16 -7 25 -19 25 -33 0
-13 6 -34 13 -47 l13 -25 18 24 c17 24 17 24 -9 17 -25 -6 -26 -5 -23 37 3 41
1 43 -30 53 -31 8 -33 12 -28 39 3 16 6 36 6 44 0 11 5 13 18 8 9 -5 24 -8 32
-8z m200 -81 c0 -19 -7 -39 -15 -46 -13 -11 -15 -6 -15 32 0 25 3 48 6 51 13
13 24 -5 24 -37z m-300 -76 c0 -5 -9 -14 -20 -20 -22 -12 -27 -1 -8 18 14 14
28 16 28 2z m310 -47 c11 -25 18 -54 15 -64 -8 -24 -113 -112 -125 -104 -5 3
-10 14 -11 23 0 14 -2 14 -6 2 -3 -8 -11 -18 -17 -22 -6 -5 -1 -8 12 -8 12 0
22 -1 22 -2 0 -2 -7 -21 -15 -43 -8 -22 -14 -47 -14 -55 0 -8 7 3 15 24 20 55
32 66 69 66 33 0 100 -44 91 -59 -3 -4 -1 -25 4 -48 8 -33 6 -48 -10 -81 -11
-23 -20 -45 -20 -50 0 -5 -26 -12 -57 -15 -35 -4 -62 -12 -69 -22 -14 -19 -38
-19 -54 0 -7 8 -23 15 -36 15 -47 0 -53 52 -20 168 10 37 11 52 3 49 -6 -2
-18 -30 -25 -63 -35 -154 -37 -156 -111 -169 -38 -6 -43 -5 -48 14 -3 12 -9
21 -14 21 -5 0 -9 21 -9 47 0 33 9 62 31 101 17 30 28 56 25 59 -4 4 -39 -40
-73 -93 -11 -17 -12 -17 -12 8 -1 36 50 92 85 93 16 0 32 8 38 19 6 11 34 41
61 67 35 34 45 49 33 49 -10 0 -18 -4 -18 -10 0 -5 -7 -10 -15 -10 -8 0 -15 5
-15 11 0 6 -7 8 -16 5 -15 -6 -15 -4 0 19 9 14 14 25 11 25 -3 0 -1 9 5 20 6
11 15 18 21 15 5 -4 7 -10 4 -15 -3 -4 2 -11 11 -14 9 -3 14 -13 11 -21 -4 -8
2 -16 14 -20 10 -4 19 -11 19 -16 0 -5 3 -8 8 -8 19 3 20 -2 4 -18 -26 -25
-59 -43 -77 -43 -9 0 -13 -4 -10 -10 3 -5 26 -10 51 -10 25 0 43 3 40 8 -2 4
2 18 10 32 l15 25 -4 -27 c-2 -15 0 -25 4 -22 5 3 9 13 9 23 0 9 20 39 45 65
l45 49 0 -47 c0 -25 5 -46 10 -46 6 0 10 17 10 39 0 60 12 131 21 125 5 -2 18
-26 29 -51z m53 -83 c3 -11 1 -23 -4 -26 -5 -3 -9 -10 -9 -16 0 -6 6 -6 16 2
12 11 18 10 31 -3 14 -14 12 -16 -26 -27 -52 -14 -53 -24 -2 -17 48 6 81 -14
81 -48 0 -13 5 -36 12 -52 9 -22 12 -24 15 -10 3 10 0 32 -6 49 -15 42 0 54
28 24 44 -46 23 -148 -32 -154 -15 -2 -27 -7 -27 -12 0 -4 -9 -6 -19 -3 -12 3
-23 21 -31 49 -7 24 -17 44 -21 44 -5 0 -9 15 -9 34 0 24 -7 40 -23 53 -13 10
-26 26 -30 36 -3 9 -12 17 -18 17 -6 0 3 14 20 32 17 17 31 38 31 45 0 20 17
7 23 -17z m-73 -79 c0 -4 -9 -7 -20 -8 -19 -2 -26 8 -14 20 7 7 34 -2 34 -12z
m285 -151 c7 -22 6 -23 -9 -8 -9 9 -16 25 -16 34 0 23 15 7 25 -26z m43 -49
c3 -10 0 -12 -11 -8 -12 4 -14 2 -10 -11 3 -9 10 -23 16 -29 6 -9 2 -16 -18
-23 -40 -15 -48 -13 -70 20 -24 35 -22 41 19 56 39 15 68 13 74 -5z m-248 -15
c0 -7 -8 -20 -17 -27 -15 -12 -16 -12 -10 4 4 10 7 23 7 28 0 5 5 9 10 9 6 0
10 -6 10 -14z m139 -36 c16 -48 21 -43 -61 -63 -23 -6 -30 -3 -43 22 -22 43
-19 51 20 51 19 0 35 5 35 10 0 24 39 8 49 -20z m-669 10 c0 -6 -7 -13 -15
-16 -8 -4 -12 -10 -9 -15 3 -5 0 -9 -5 -9 -6 0 -11 -4 -11 -10 0 -18 27 1 39
27 18 40 35 14 35 -54 1 -32 6 -61 11 -66 6 -4 0 -10 -12 -13 -21 -6 -27 -20
-24 -49 0 -6 -13 -19 -29 -28 -25 -15 -28 -21 -20 -38 14 -26 -4 -25 -31 2
-17 17 -18 23 -7 37 9 11 10 14 1 8 -8 -4 -13 -2 -13 8 0 8 5 18 10 21 6 3 10
23 10 43 0 21 7 48 16 60 8 12 12 27 9 32 -9 14 17 70 32 70 7 0 13 -5 13 -10z
m280 -81 c68 -35 147 -27 198 21 34 32 67 20 92 -35 11 -24 20 -50 20 -58 0
-19 -46 -60 -59 -52 -7 3 -11 -2 -11 -15 0 -11 -12 -31 -26 -44 -21 -17 -27
-31 -27 -64 l0 -42 -76 -36 c-42 -20 -84 -45 -94 -55 -24 -25 -32 -24 -62 8
-14 15 -25 22 -25 15 0 -9 -7 -11 -21 -7 -13 4 -28 0 -41 -12 -20 -18 -21 -18
-14 5 4 12 3 22 -2 22 -5 0 -7 13 -4 29 2 16 -1 32 -7 35 -18 12 -12 24 9 19
25 -7 25 2 1 26 -12 12 -19 31 -18 48 2 27 5 28 52 27 77 -2 123 -14 128 -34
7 -29 -12 -50 -46 -51 l-32 -1 30 -13 c29 -13 31 -12 44 16 8 16 20 29 27 29
7 0 20 8 29 17 53 53 108 90 128 86 28 -4 42 6 52 36 5 16 4 21 -4 17 -6 -4
-11 -14 -11 -22 0 -8 -8 -14 -17 -15 -38 -1 -55 -8 -89 -36 -61 -48 -88 -63
-97 -54 -13 13 0 30 31 42 19 8 23 12 13 22 -9 9 -17 5 -35 -17 -17 -23 -27
-27 -42 -21 -22 9 -31 11 -61 13 -20 2 -23 7 -23 49 0 53 -17 49 -22 -6 -2
-28 -8 -36 -30 -42 -23 -6 -28 -3 -37 22 -5 16 -14 29 -19 29 -9 0 -32 66 -32
94 0 9 6 16 13 15 27 -5 122 14 135 28 13 12 17 12 36 -5 11 -11 32 -25 46
-33z m488 16 c-4 -18 0 -26 13 -30 24 -8 38 -62 40 -148 2 -66 12 -86 24 -46
4 11 12 18 18 16 15 -4 54 -153 44 -164 -11 -11 -24 13 -31 58 -3 21 -11 41
-18 45 -8 5 -9 2 -4 -11 4 -11 10 -38 13 -62 5 -41 5 -43 -20 -43 -14 0 -31
-2 -39 -5 -18 -7 -68 95 -68 138 l1 32 19 -24 c23 -27 24 -25 9 18 -6 17 -15
31 -21 31 -6 0 -7 21 -3 55 5 38 4 55 -4 55 -10 0 -15 -20 -12 -47 3 -19 -35
-16 -54 3 -9 10 -14 26 -12 36 4 15 2 17 -8 8 -17 -14 -45 -2 -45 20 0 10 -6
20 -12 23 -7 2 -10 7 -7 11 8 9 81 -20 90 -36 4 -6 14 5 24 25 12 25 22 34 33
31 14 -5 14 -3 -1 9 -18 15 -18 15 0 20 33 9 35 7 31 -18z m-352 3 c-12 -7
-21 -7 -28 0 -6 6 0 10 18 10 23 0 24 -2 10 -10z m282 -20 c-2 -17 -9 -22 -23
-20 -46 7 -51 13 -20 27 42 19 47 18 43 -7z m-805 -175 c3 -18 -1 -36 -14 -52
-10 -13 -19 -28 -19 -34 0 -6 -7 -18 -15 -28 -15 -15 -14 -17 12 -24 15 -5 33
-7 38 -6 6 2 7 -1 3 -4 -4 -4 -3 -16 3 -26 12 -23 1 -25 -15 -3 -10 13 -14 12
-36 -11 -17 -18 -21 -28 -13 -36 14 -14 34 -3 27 15 -3 8 0 17 7 22 9 5 10 2
6 -9 -3 -9 -1 -17 4 -19 6 -2 2 -14 -8 -27 l-19 -24 -55 21 c-30 12 -46 21
-36 21 9 1 17 5 17 11 0 5 7 7 15 4 11 -5 13 -2 9 10 -3 8 -10 14 -16 13 -6
-1 -12 6 -13 16 -2 10 1 14 8 10 5 -3 24 -7 41 -9 l30 -2 -25 19 c-13 10 -29
17 -36 14 -9 -3 -10 3 -2 23 24 66 72 142 90 142 4 0 9 -12 12 -27z m37 -76
c0 -37 -15 -57 -42 -57 -24 0 -23 13 5 55 28 44 37 44 37 2z m520 -88 c0 -5 5
-7 10 -4 6 3 10 2 10 -4 0 -5 -10 -13 -22 -17 -23 -7 -23 -7 5 -19 l28 -11
-51 -32 c-28 -17 -65 -33 -83 -35 -17 -3 -40 -8 -50 -12 -10 -4 -24 -2 -32 5
-12 10 -15 9 -15 -8 0 -39 -50 -57 -87 -31 -13 9 -20 19 -16 22 3 4 1 7 -6 7
-8 0 -10 11 -5 38 8 45 19 58 60 65 25 5 33 2 43 -16 13 -25 43 -29 76 -11 11
6 32 14 48 18 15 3 27 11 27 16 0 6 -15 4 -35 -5 -20 -8 -33 -10 -29 -4 6 11
46 28 78 35 10 2 21 6 24 9 9 9 22 6 22 -6z m-647 -100 c20 -5 37 -14 37 -19
0 -5 -8 -6 -17 -3 -16 6 -16 5 -4 -10 23 -29 6 -29 -23 0 -20 20 -25 22 -19 7
4 -10 14 -24 22 -31 14 -10 13 -11 -6 -6 -13 3 -23 12 -23 19 0 8 -7 14 -15
14 -8 0 -15 5 -15 10 0 6 5 10 11 10 5 0 7 5 4 10 -8 13 1 12 48 -1z m-12 -79
c11 -7 19 -21 19 -37 0 -15 7 -34 16 -44 18 -20 12 -51 -8 -48 -20 2 -58 -12
-58 -22 0 -5 -10 -9 -23 -9 -22 0 -23 3 -19 73 2 39 5 78 7 85 5 15 39 16 66
2z m1154 -10 c3 -5 -1 -10 -9 -10 -8 0 -18 -5 -22 -12 -5 -8 -2 -9 10 -5 12 5
16 3 14 -5 -3 -7 -20 -15 -39 -17 l-34 -4 30 -7 30 -8 -27 -1 c-16 0 -37 8
-48 19 -11 11 -15 20 -8 20 6 0 8 3 4 7 -4 5 12 13 36 19 56 16 56 16 63 4z
m-38 -84 c18 0 29 -4 26 -9 -3 -4 -5 -35 -4 -68 0 -32 -4 -59 -9 -59 -6 0 -10
9 -10 20 0 20 0 20 -20 0 -27 -27 -42 -25 -34 5 6 23 5 23 -20 12 -14 -7 -28
-19 -30 -27 -3 -8 -4 6 -3 31 1 34 -1 45 -10 42 -21 -8 -15 15 7 27 11 6 20
18 20 26 0 13 6 14 28 8 15 -4 41 -8 59 -8z m-731 -691 c8 -36 28 -98 45 -138
26 -60 31 -84 30 -143 -1 -55 5 -88 29 -154 26 -71 41 -180 26 -180 -2 0 -11
-3 -20 -6 -12 -5 -16 0 -16 17 0 13 -13 51 -29 85 -16 33 -32 72 -35 85 l-7
24 20 -25 c11 -14 21 -20 21 -13 0 16 -98 216 -110 223 -5 3 -7 41 -5 85 5 91
25 219 32 211 3 -3 11 -35 19 -71z m134 -676 c0 -24 -23 -21 -28 4 -2 10 3 17
12 17 10 0 16 -9 16 -21z m34 -81 c15 -8 16 -12 5 -19 -11 -7 -10 -9 4 -9 11
0 17 8 17 22 0 21 7 23 10 3 4 -21 24 -35 51 -35 18 0 29 -5 29 -14 0 -8 3
-21 6 -30 9 -23 -8 -20 -52 10 -35 24 -37 24 -19 4 11 -12 36 -30 55 -41 19
-10 29 -18 21 -19 -20 0 -78 38 -96 63 -12 17 -26 21 -76 23 -34 1 -84 -4
-112 -12 -28 -7 -53 -11 -56 -9 -6 6 -5 7 57 35 29 13 58 30 64 37 12 15 55
10 92 -9z m120 -19 c5 -4 -7 -7 -25 -7 -40 1 -52 6 -44 19 7 10 54 2 69 -12z"/>
<path d="M975 5148 l-40 -21 30 -10 c21 -7 30 -7 33 2 2 6 10 11 18 11 8 0 14
9 14 20 0 25 -5 24 -55 -2z"/>
<path d="M1037 5103 c-12 -20 -18 -73 -8 -73 5 0 13 16 17 35 6 34 1 55 -9 38z"/>
<path d="M1240 4576 c0 -8 5 -18 10 -21 6 -3 10 1 10 9 0 8 -4 18 -10 21 -5 3
-10 -1 -10 -9z"/>
<path d="M672 4558 c-14 -14 -16 -28 -3 -28 5 0 11 9 14 20 6 23 5 24 -11 8z"/>
<path d="M636 4535 c4 -18 2 -30 -7 -36 -10 -6 -8 -10 11 -17 17 -6 27 -6 32
2 4 6 1 12 -7 14 -8 2 -15 14 -15 27 0 13 -5 27 -10 30 -7 4 -8 -3 -4 -20z"/>
<path d="M840 4544 c1 -20 29 -45 85 -74 l59 -31 30 31 31 31 -34 -17 c-31
-16 -36 -16 -61 0 -16 9 -34 16 -41 16 -7 0 -26 12 -41 27 -15 15 -28 23 -28
17z"/>
<path d="M1102 4508 c-17 -17 -15 -25 8 -23 22 1 62 35 43 35 -7 0 -15 -5 -19
-11 -5 -8 -8 -8 -13 0 -5 8 -10 8 -19 -1z"/>
<path d="M748 4503 c6 -2 12 -10 12 -17 0 -10 8 -11 34 -2 43 13 38 20 -17 22
-23 1 -36 0 -29 -3z"/>
<path d="M1075 4339 c-5 -5 -21 -18 -35 -29 -19 -15 -21 -19 -9 -20 22 0 63
33 58 47 -2 6 -8 7 -14 2z"/>
<path d="M870 4320 c8 -5 22 -10 30 -10 13 0 13 1 0 10 -8 5 -22 10 -30 10
-13 0 -13 -1 0 -10z"/>
<path d="M827 4296 c-3 -8 1 -17 9 -20 28 -11 34 -6 22 14 -15 24 -24 25 -31
6z"/>
<path d="M856 4214 c-17 -12 -17 -14 -4 -14 9 0 20 5 23 11 11 17 2 18 -19 3z"/>
<path d="M940 4215 c0 -8 5 -15 10 -15 6 0 10 7 10 15 0 8 -4 15 -10 15 -5 0
-10 -7 -10 -15z"/>
<path d="M1430 4464 c0 -5 9 -20 20 -34 14 -18 20 -21 20 -9 0 9 -9 24 -20 34
-11 10 -20 14 -20 9z"/>
<path d="M1460 4283 c0 -7 4 -13 9 -13 5 0 11 6 14 13 3 8 -1 14 -9 14 -8 0
-14 -6 -14 -14z"/>
<path d="M1017 4119 c-9 -5 -22 -7 -28 -4 -5 4 -16 1 -24 -5 -8 -6 -23 -9 -35
-5 -12 4 -20 2 -20 -6 0 -8 13 -10 43 -6 43 6 124 36 97 36 -8 0 -23 -4 -33
-10z"/>
<path d="M864 4095 c-5 -13 -14 -15 -35 -11 -27 5 -28 4 -17 -14 7 -11 15 -20
19 -20 11 0 52 50 46 56 -4 4 -10 -1 -13 -11z"/>
<path d="M643 4838 c-18 -24 -24 -38 -16 -38 11 1 46 50 35 50 -5 0 -14 -6
-19 -12z"/>
<path d="M686 4003 c-27 -52 -30 -69 -32 -168 l-3 -110 13 106 c14 105 24 137
54 171 11 13 12 24 6 39 -8 18 -13 14 -38 -38z"/>
<path d="M1093 4005 c17 -35 57 -74 57 -57 0 7 -4 12 -10 12 -5 0 -10 6 -10
13 0 8 -12 24 -26 38 l-27 24 16 -30z"/>
<path d="M777 3981 c-10 -4 -18 -10 -17 -14 1 -9 -31 -67 -47 -85 -16 -17 -17
-32 -1 -32 7 0 5 -7 -5 -18 -9 -9 -18 -30 -21 -46 -3 -15 -12 -38 -20 -50 -8
-13 -16 -36 -19 -52 -9 -57 -40 -159 -54 -175 -7 -8 -13 -25 -13 -37 0 -16
-11 -27 -35 -39 -27 -13 -35 -23 -35 -44 0 -15 -4 -31 -10 -34 -14 -8 -13 -51
2 -91 l12 -33 24 42 c59 105 72 131 60 116 -7 -8 -21 -18 -31 -22 -10 -4 -16
-11 -13 -16 3 -5 -1 -12 -10 -15 -25 -10 -34 -7 -34 10 0 11 5 14 16 10 12 -5
15 0 12 26 -2 20 2 33 11 36 8 3 11 0 7 -7 -4 -6 0 -11 9 -11 9 0 14 4 11 9
-4 5 5 8 19 7 13 -2 22 1 19 5 -3 5 2 22 11 38 8 17 15 49 15 73 0 74 76 301
102 306 13 2 14 -5 7 -46 -10 -63 -26 -125 -50 -190 -23 -63 -24 -73 -5 -47
24 34 63 176 75 270 6 50 16 102 22 117 14 34 9 47 -14 39z m-21 -98 c-11 -11
-19 6 -11 24 8 17 8 17 12 0 3 -10 2 -21 -1 -24z"/>
<path d="M845 3755 c-4 -37 -5 -69 -2 -72 3 -2 8 25 12 62 4 36 5 68 2 71 -2
3 -8 -25 -12 -61z"/>
<path d="M691 3668 c-36 -106 -35 -104 -24 -93 13 13 56 142 51 155 -2 6 -14
-22 -27 -62z"/>
<path d="M790 3521 c-20 -69 -48 -113 -34 -54 4 15 4 25 0 22 -4 -4 -9 -17
-10 -30 -2 -13 -6 -31 -9 -39 -3 -8 -8 -24 -10 -35 -3 -11 -13 -39 -21 -62 -9
-24 -18 -73 -21 -110 l-5 -68 20 72 c11 40 36 115 55 166 43 116 68 197 61
204 -2 3 -14 -27 -26 -66z"/>
<path d="M1104 3348 c3 -7 9 -21 12 -30 4 -10 10 -18 15 -18 5 0 3 14 -6 30
-15 28 -33 44 -21 18z"/>
<path d="M1207 3227 c-6 -15 18 -57 32 -57 12 0 -3 63 -16 67 -6 2 -13 -3 -16
-10z"/>
<path d="M1131 3156 c39 -20 96 -29 105 -15 4 7 2 10 -7 7 -8 -3 -34 1 -58 9
-57 17 -73 17 -40 -1z"/>
<path d="M1021 3040 c13 -11 29 -23 34 -28 37 -30 93 -62 108 -62 35 0 11 23
-67 67 -84 46 -114 55 -75 23z"/>
<path d="M956 2925 c7 -32 31 -65 46 -65 5 0 0 17 -13 38 -33 54 -42 62 -33
27z"/>
<path d="M1069 2821 c-13 -11 -21 -22 -17 -26 6 -6 88 31 88 40 0 13 -51 3
-71 -14z"/>
<path d="M1030 2677 c0 -21 75 -97 95 -97 9 0 15 -7 13 -16 -2 -10 3 -19 10
-21 25 -9 -2 33 -60 91 -38 39 -58 54 -58 43z"/>
</g>
</svg>
